<svg width="18" height="18" viewBox="0 0 18 18" fill="none" xmlns="http://www.w3.org/2000/svg">
<path d="M6.4618 3.73585C6.32234 3.59648 6.14995 3.49452 5.96059 3.43941C5.77123 3.3843 5.57102 3.37782 5.37849 3.42056C5.18595 3.46331 5.00732 3.55391 4.85913 3.68397C4.71093 3.81403 4.59796 3.97935 4.53067 4.16462L0.070301 16.4267C0.00621264 16.6034 -0.0144804 16.7928 0.00996231 16.9792C0.034405 17.1655 0.103269 17.3432 0.21076 17.4974C0.318251 17.6516 0.461225 17.7777 0.627653 17.8652C0.794081 17.9526 0.979094 17.9989 1.16713 18C1.30538 17.9997 1.44252 17.9752 1.57238 17.9278L13.8388 13.4703C14.0239 13.4026 14.1889 13.2893 14.3186 13.141C14.4483 12.9927 14.5384 12.8141 14.5808 12.6217C14.6231 12.4294 14.6163 12.2295 14.5608 12.0405C14.5054 11.8514 14.4032 11.6795 14.2636 11.5404L6.4618 3.73585ZM1.22405 16.9701C1.19677 16.9802 1.16717 16.9822 1.13875 16.976C1.11034 16.9698 1.0843 16.9556 1.06373 16.935C1.04316 16.9145 1.02893 16.8885 1.02271 16.8601C1.01649 16.8317 1.01855 16.8021 1.02864 16.7748L2.31833 13.2283L4.77281 15.6804L1.22405 16.9701ZM5.82971 15.2966L2.7032 12.1712L3.94955 8.74528L9.25867 14.051L5.82971 15.2966ZM13.5916 12.4022C13.5865 12.4274 13.5749 12.4509 13.5579 12.4702C13.5409 12.4896 13.5191 12.5042 13.4948 12.5125L10.3156 13.6698L4.33102 7.68821L5.48902 4.51613C5.49724 4.49169 5.51179 4.46986 5.53119 4.45286C5.55059 4.43586 5.57414 4.42429 5.59947 4.41934C5.61103 4.41783 5.62274 4.41783 5.6343 4.41934C5.65413 4.41925 5.67377 4.42319 5.69203 4.43092C5.71029 4.43866 5.72678 4.45003 5.7405 4.46434L13.5466 12.2655C13.5652 12.2825 13.5791 12.304 13.587 12.3279C13.5949 12.3519 13.5965 12.3774 13.5916 12.4022ZM10.8729 5.26415C10.885 4.83137 10.9902 4.40627 11.1813 4.01774C11.601 3.17887 12.3962 2.71698 13.4217 2.71698C14.0563 2.71698 14.4862 2.48434 14.7369 2.00547C14.8641 1.75097 14.937 1.47283 14.951 1.18868C14.951 1.05357 15.0047 0.923992 15.1003 0.828455C15.1959 0.732918 15.3255 0.679245 15.4607 0.679245C15.5959 0.679245 15.7256 0.732918 15.8212 0.828455C15.9168 0.923992 15.9705 1.05357 15.9705 1.18868C15.9705 2.07 15.4378 3.73585 13.4217 3.73585C12.787 3.73585 12.3571 3.96849 12.1065 4.44736C11.9789 4.7017 11.9059 4.97993 11.8924 5.26415C11.8924 5.39926 11.8387 5.52884 11.7431 5.62437C11.6475 5.71991 11.5179 5.77358 11.3827 5.77358C11.2475 5.77358 11.1178 5.71991 11.0222 5.62437C10.9266 5.52884 10.8729 5.39926 10.8729 5.26415ZM8.83387 2.54717V0.509434C8.83387 0.374324 8.88758 0.244747 8.98318 0.14921C9.07878 0.0536724 9.20843 0 9.34363 0C9.47883 0 9.60849 0.0536724 9.70408 0.14921C9.79968 0.244747 9.85339 0.374324 9.85339 0.509434V2.54717C9.85339 2.68228 9.79968 2.81186 9.70408 2.90739C9.60849 3.00293 9.47883 3.0566 9.34363 3.0566C9.20843 3.0566 9.07878 3.00293 8.98318 2.90739C8.88758 2.81186 8.83387 2.68228 8.83387 2.54717ZM17.1803 9.65887C17.2304 9.70551 17.2705 9.76175 17.2984 9.82424C17.3263 9.88673 17.3413 9.95419 17.3425 10.0226C17.3437 10.091 17.3311 10.1589 17.3054 10.2224C17.2798 10.2858 17.2416 10.3434 17.1932 10.3918C17.1448 10.4402 17.0872 10.4783 17.0237 10.5039C16.9602 10.5296 16.8922 10.5421 16.8238 10.5409C16.7553 10.5397 16.6878 10.5248 16.6253 10.4969C16.5628 10.4691 16.5065 10.4289 16.4598 10.3789L15.1005 9.02038C15.0104 8.92381 14.9614 8.79608 14.9638 8.6641C14.9661 8.53212 15.0196 8.4062 15.113 8.31286C15.2064 8.21952 15.3324 8.16606 15.4644 8.16373C15.5965 8.1614 15.7243 8.21039 15.8209 8.30038L17.1803 9.65887ZM17.6612 5.74726L15.6221 6.42651C15.5583 6.44922 15.4905 6.45898 15.4228 6.45521C15.3552 6.45144 15.2889 6.43422 15.228 6.40455C15.167 6.37489 15.1126 6.33337 15.0679 6.28244C15.0232 6.2315 14.9892 6.17217 14.9677 6.10792C14.9462 6.04366 14.9378 5.97578 14.9429 5.90823C14.948 5.84068 14.9665 5.77482 14.9974 5.71451C15.0283 5.65421 15.0709 5.60066 15.1227 5.55701C15.1746 5.51336 15.2346 5.48047 15.2993 5.46028L17.3383 4.78104C17.4657 4.74129 17.6036 4.75305 17.7224 4.81381C17.8413 4.87456 17.9315 4.97946 17.9738 5.10597C18.016 5.23248 18.007 5.37051 17.9485 5.49042C17.8901 5.61033 17.7869 5.70254 17.6612 5.74726Z" fill="black"/>
</svg>
