<svg width="17" height="18" viewBox="0 0 17 18" fill="none" xmlns="http://www.w3.org/2000/svg">
<path d="M11.191 11.54C10.4354 11.5416 9.68692 11.3941 8.98849 11.1058C8.29006 10.8175 7.65542 10.3941 7.12098 9.86C6.17431 8.91796 5.58374 7.67669 5.44998 6.34788C5.31622 5.01907 5.64756 3.68501 6.3875 2.57319C7.12743 1.46138 8.23014 0.640673 9.50756 0.251031C10.785 -0.138612 12.158 -0.0730588 13.3925 0.436511C14.627 0.94608 15.6465 1.86811 16.2771 3.04536C16.9078 4.22261 17.1105 5.58217 16.8508 6.89219C16.591 8.20222 15.8849 9.38157 14.8528 10.2291C13.8207 11.0767 12.5265 11.54 11.191 11.54ZM11.191 1.54C10.3519 1.54205 9.53224 1.79242 8.83524 2.25956C8.13824 2.72669 7.59511 3.38969 7.2743 4.16499C6.95348 4.9403 6.86933 5.79322 7.03246 6.61627C7.19559 7.43932 7.5987 8.19567 8.19098 8.79C8.68487 9.28559 9.29346 9.65159 9.96276 9.8555C10.6321 10.0594 11.3413 10.0949 12.0277 9.95889C12.714 9.82286 13.3561 9.5195 13.897 9.07572C14.4379 8.63194 14.8609 8.06149 15.1284 7.41498C15.396 6.76848 15.4997 6.06593 15.4305 5.36969C15.3613 4.67346 15.1213 4.00507 14.7318 3.42387C14.3423 2.84266 13.8153 2.36661 13.1976 2.03798C12.5799 1.70935 11.8906 1.53829 11.191 1.54Z" fill="black"/>
<path d="M0.690983 17.04C0.49804 17.0253 0.318552 16.9355 0.190983 16.79C0.0679943 16.6525 0 16.4745 0 16.29C0 16.1055 0.0679943 15.9275 0.190983 15.79L6.65098 9.32001C6.79287 9.17944 6.98479 9.101 7.18452 9.10194C7.28341 9.1024 7.38125 9.12234 7.47244 9.16061C7.56362 9.19889 7.64638 9.25475 7.71598 9.32501C7.78558 9.39526 7.84066 9.47854 7.87808 9.57009C7.9155 9.66163 7.93452 9.75965 7.93405 9.85854C7.93359 9.95744 7.91365 10.0553 7.87537 10.1465C7.8371 10.2376 7.78124 10.3204 7.71098 10.39L1.19098 16.79C1.06341 16.9355 0.883926 17.0253 0.690983 17.04Z" fill="black"/>
<path d="M4.19098 17.54C4.09244 17.5405 3.9948 17.5213 3.90378 17.4835C3.81277 17.4457 3.73022 17.3901 3.66098 17.32L1.66098 15.32C1.5285 15.1778 1.45637 14.9898 1.4598 14.7955C1.46323 14.6012 1.54194 14.4158 1.67936 14.2784C1.81677 14.141 2.00215 14.0623 2.19646 14.0588C2.39076 14.0554 2.5788 14.1275 2.72098 14.26L4.72098 16.26C4.86143 16.4006 4.94032 16.5913 4.94032 16.79C4.94032 16.9888 4.86143 17.1794 4.72098 17.32C4.65173 17.3901 4.56918 17.4457 4.47817 17.4835C4.38716 17.5213 4.28952 17.5405 4.19098 17.54ZM6.19098 15.54C6.09244 15.5405 5.9948 15.5213 5.90378 15.4835C5.81277 15.4457 5.73022 15.3901 5.66098 15.32L3.66098 13.32C3.58729 13.2513 3.52819 13.1685 3.4872 13.0765C3.4462 12.9845 3.42416 12.8852 3.42239 12.7845C3.42061 12.6838 3.43913 12.5838 3.47686 12.4904C3.51458 12.397 3.57072 12.3122 3.64194 12.241C3.71316 12.1698 3.79799 12.1136 3.89138 12.0759C3.98477 12.0382 4.0848 12.0196 4.1855 12.0214C4.2862 12.0232 4.38552 12.0452 4.47752 12.0862C4.56952 12.1272 4.65232 12.1863 4.72098 12.26L6.72098 14.26C6.86143 14.4006 6.94032 14.5913 6.94032 14.79C6.94032 14.9888 6.86143 15.1794 6.72098 15.32C6.65173 15.3901 6.56918 15.4457 6.47817 15.4835C6.38716 15.5213 6.28952 15.5405 6.19098 15.54Z" fill="black"/>
</svg>
