<svg width="18" height="18" viewBox="0 0 18 18" fill="none" xmlns="http://www.w3.org/2000/svg">
<path d="M9.00034 0C9.20494 0 9.40117 0.0812752 9.54584 0.225946C9.69052 0.370617 9.7718 0.566833 9.7718 0.771429C9.7718 0.976024 9.69052 1.17224 9.54584 1.31691C9.40117 1.46158 9.20494 1.54286 9.00034 1.54286C7.02251 1.54286 5.12568 2.32852 3.72714 3.727C2.32861 5.12549 1.54292 7.02224 1.54292 9C1.54292 10.9778 2.32861 12.8745 3.72714 14.273C5.12568 15.6715 7.02251 16.4571 9.00034 16.4571C9.20494 16.4571 9.40117 16.5384 9.54584 16.6831C9.69052 16.8278 9.7718 17.024 9.7718 17.2286C9.7718 17.4332 9.69052 17.6294 9.54584 17.7741C9.40117 17.9187 9.20494 18 9.00034 18C6.6133 18 4.32403 17.0518 2.63614 15.364C0.948247 13.6761 0 11.3869 0 9C0 6.61305 0.948247 4.32387 2.63614 2.63604C4.32403 0.948212 6.6133 0 9.00034 0Z" fill="black"/>
<path d="M13.5982 6.45943C13.4619 6.31319 13.3877 6.11977 13.3913 5.91992C13.3948 5.72007 13.4758 5.52939 13.6171 5.38805C13.7584 5.24671 13.9491 5.16575 14.149 5.16222C14.3489 5.1587 14.5423 5.23288 14.6885 5.36915L17.7744 8.45486C17.9188 8.5995 18 8.79557 18 9C18 9.20443 17.9188 9.4005 17.7744 9.54514L14.6885 12.6309C14.6179 12.7067 14.5327 12.7674 14.4381 12.8096C14.3435 12.8518 14.2413 12.8744 14.1377 12.8763C14.0341 12.8781 13.9313 12.859 13.8352 12.8202C13.7391 12.7814 13.6519 12.7237 13.5786 12.6504C13.5054 12.5772 13.4476 12.4899 13.4088 12.3939C13.37 12.2978 13.351 12.1949 13.3528 12.0914C13.3546 11.9878 13.3773 11.8856 13.4194 11.791C13.4616 11.6964 13.5224 11.6112 13.5982 11.5406L15.3674 9.77143H6.94309C6.73849 9.77143 6.54226 9.69015 6.39759 9.54548C6.25291 9.40081 6.17163 9.2046 6.17163 9C6.17163 8.79541 6.25291 8.59919 6.39759 8.45452C6.54226 8.30985 6.73849 8.22857 6.94309 8.22857H15.3674L13.5982 6.45943Z" fill="black"/>
</svg>
