<svg width="18" height="18" viewBox="0 0 18 18" fill="none" xmlns="http://www.w3.org/2000/svg">
<path d="M11.2327 6.747C10.6742 6.19118 10.0116 5.75081 9.28294 5.45103C8.55424 5.15126 7.77363 4.99794 6.98568 4.99985C6.19773 5.00175 5.41786 5.15883 4.69062 5.46213C3.96338 5.76542 3.30299 6.20899 2.74717 6.7675C2.19135 7.32601 1.75098 7.98853 1.4512 8.71723C1.15143 9.44593 0.998114 10.2265 1.00002 11.0145C1.00192 11.8024 1.159 12.5823 1.4623 13.3096C1.76559 14.0368 2.20916 14.6972 2.76767 15.253C3.89564 16.3755 5.42333 17.004 7.01467 17.0002C8.60601 16.9963 10.1306 16.3605 11.2532 15.2325C12.3757 14.1045 13.0042 12.5768 13.0003 10.9855C12.9965 9.39416 12.3606 7.86953 11.2327 6.747ZM11.2327 6.747L17.0007 1M17.0007 1H13.0007M17.0007 1V5" stroke="black" stroke-width="1.5" stroke-linecap="round" stroke-linejoin="round"/>
</svg>
